<?xml version="1.0" encoding="UTF-8"?><svg id="Layer_1" xmlns="http://www.w3.org/2000/svg" viewBox="0 0 512.3789 80.7"><path d="M10.1789,59.5c-3.7,0-7.1-1.9-8.9-5.1-1.8-3.1-1.7-6.9.3-9.9l18.3-28.2c1.9-3.1,5.4-4.9,9.1-4.8,3.7.1,7.1,2.1,8.8,5.3s1.5,7-.5,9.9l-18.5,28.2c-1.8,2.8-5.1,4.6-8.6,4.6Z" fill="#fb275d"/><path d="M41.4789,59.5c-3.7,0-7.1-1.9-8.9-5-1.8-3.1-1.7-6.9.3-9.9l18.4-28.1c1.9-3.1,5.3-5,9.1-4.9s7.1,2.1,8.8,5.3,1.5,7-.7,10l-18.4,28c-1.8,2.8-5.1,4.5-8.6,4.6h0Z" fill="#fc0"/><path d="M72.0789,59.5c5.6,0,10.2-4.6,10.2-10.2s-4.6-10.2-10.2-10.2-10.2,4.6-10.2,10.2c0,5.7,4.5,10.2,10.2,10.2Z" fill="#00ca72"/><path d="M156.2789,14.1c5.6,0,10,1.7,13.3,5.1s5,8.1,5,14.1v26.2h-13.7v-24.4c0-2.9-.8-5.1-2.3-6.7s-3.6-2.4-6.3-2.4-4.8.8-6.4,2.4c-1.5,1.5-2.2,3.8-2.2,6.7v24.4h-13.7v-24.4c0-2.9-.8-5.1-2.3-6.7s-3.6-2.4-6.3-2.4-4.8.8-6.4,2.4c-1.5,1.5-2.2,3.8-2.2,6.7v24.4h-13.8V14.6h13.8v5.6c1.4-1.9,3.2-3.3,5.5-4.4,2.2-1.1,4.8-1.7,7.6-1.7,3.4,0,6.4.7,9,2.2,2.7,1.5,4.8,3.5,6.3,6.2,1.6-2.5,3.7-4.5,6.4-6,2.6-1.7,5.5-2.4,8.7-2.4Z" fill="#fff"/><path d="M202.179,60.1c-4.4,0-8.4-.9-11.9-2.8s-6.2-4.6-8.3-8c-2-3.5-3-7.6-3-12.2s1-8.7,3.1-12.1c2-3.5,4.8-6.2,8.4-8.1,3.5-1.9,7.5-2.8,11.9-2.8s8.4.9,11.9,2.8,6.3,4.6,8.4,8.1c2,3.5,3.1,7.5,3.1,12.1s-1.1,8.7-3.1,12.2-4.9,6.2-8.4,8c-3.7,1.8-7.7,2.8-12.1,2.8ZM202.179,48.1c2.6,0,4.9-1,6.7-2.9,1.9-1.9,2.8-4.7,2.8-8.3s-.9-6.3-2.7-8.3c-1.8-1.9-4-2.9-6.6-2.9-2.7,0-4.9,1-6.7,2.9s-2.6,4.6-2.6,8.3c0,3.6.9,6.3,2.6,8.3,1.7,2,3.9,2.9,6.5,2.9Z" fill="#fff"/><path d="M257.8789,14.1c5.3,0,9.4,1.7,12.5,5.2,3.2,3.4,4.8,8,4.8,14v26.2h-13.7v-24.4c0-3-.8-5.3-2.3-7-1.6-1.7-3.6-2.5-6.3-2.5-2.6,0-4.7.8-6.3,2.5-1.6,1.7-2.3,4-2.3,7v24.4h-13.8V14.6h13.8v5.9c1.4-2,3.3-3.5,5.6-4.7,2.4-1.2,5.1-1.7,8-1.7Z" fill="#fff"/><path d="M279.579,36.9c0-4.6.9-8.7,2.6-12.1,1.8-3.5,4.2-6.2,7.2-8,3-1.9,6.4-2.8,10-2.8,3,0,5.6.6,8,1.8,2.5,1.2,4.4,2.9,5.8,5V0h13.8v59.5h-13.8v-6.4c-1.3,2.1-3.1,3.9-5.5,5.2-2.4,1.3-5.1,1.9-8.3,1.9-3.7,0-7-.9-10-2.8s-5.4-4.6-7.2-8.1c-1.7-3.7-2.6-7.8-2.6-12.4ZM313.1789,37c0-3.4-1-6.1-2.9-8.1s-4.2-3-6.9-3-5.1,1-7,3c-1.9,1.9-2.8,4.6-2.8,8s.9,6.2,2.8,8.2,4.3,3,7,3,5-1,6.9-3c2-2,2.9-4.7,2.9-8.1Z" fill="#fff"/><path d="M331.7789,36.9c0-4.6.9-8.7,2.6-12.1,1.8-3.5,4.2-6.2,7.2-8,3-1.9,6.4-2.8,10-2.8,3.2,0,5.9.6,8.3,1.9s4.3,3,5.5,5.1v-6.3h13.8v44.9h-13.8v-6.4c-1.3,2.1-3.2,3.8-5.6,5.1s-5.1,1.9-8.3,1.9c-3.6,0-7-.9-10-2.8s-5.4-4.6-7.2-8.1c-1.7-3.7-2.5-7.8-2.5-12.4ZM365.3789,37c0-3.4-1-6.1-2.9-8.1s-4.2-3-6.9-3-5.1,1-7,3c-1.9,1.9-2.8,4.6-2.8,8s.9,6.2,2.8,8.2,4.3,3,7,3,5-1,6.9-3c1.9-2,2.9-4.7,2.9-8.1Z" fill="#fff"/><path d="M432.479,14.5l-28.1,66.2h-14.8l10.3-22.8-18.3-43.4h15.4l10.4,28.1,10.3-28.1h14.8Z" fill="#fff"/><path d="M424.1789,60c-1.2,0-2.2-.4-3.1-1.1-.8-.8-1.2-1.7-1.2-2.9s.4-2.1,1.2-2.8c.8-.8,1.8-1.2,3.1-1.2,1.2,0,2.2.4,3,1.2.8.7,1.2,1.7,1.2,2.8s-.4,2.1-1.2,2.9c-.8.7-1.8,1.1-3,1.1Z" fill="#fff"/><path d="M434.079,49.5c0-2.1.4-3.9,1.3-5.5s2-2.8,3.5-3.6c1.5-.9,3.2-1.3,5.2-1.3,2.5,0,4.6.6,6.2,1.9,1.6,1.2,2.8,3,3.3,5.2h-5.5c-.3-.9-.8-1.6-1.5-2-.7-.5-1.5-.8-2.5-.8-1.5,0-2.6.5-3.5,1.6-.9,1-1.3,2.5-1.3,4.5,0,1.9.4,3.4,1.3,4.5.9,1,2,1.6,3.5,1.6,2.1,0,3.4-.9,4-2.8h5.5c-.6,2.2-1.7,3.9-3.3,5.2-1.6,1.3-3.7,1.9-6.2,1.9-1.9,0-3.7-.4-5.2-1.3s-2.7-2.1-3.5-3.6c-.9-1.6-1.3-3.4-1.3-5.5Z" fill="#fff"/><path d="M465.479,59.9c-1.9,0-3.7-.4-5.2-1.3s-2.8-2.1-3.7-3.7c-.9-1.6-1.3-3.4-1.3-5.5s.5-3.9,1.4-5.5,2.2-2.8,3.8-3.6c1.6-.9,3.3-1.3,5.3-1.3s3.7.4,5.3,1.3c1.6.8,2.8,2.1,3.7,3.6.9,1.6,1.4,3.4,1.4,5.5s-.5,3.9-1.4,5.5-2.2,2.8-3.8,3.7c-1.7.9-3.5,1.3-5.5,1.3ZM465.479,55.5c.9,0,1.8-.2,2.6-.7.8-.5,1.5-1.1,2-2s.7-2,.7-3.3c0-1.9-.5-3.4-1.5-4.4s-2.2-1.6-3.7-1.6-2.7.5-3.7,1.6c-1,1-1.5,2.5-1.5,4.4s.5,3.4,1.4,4.4c1.1,1.1,2.3,1.6,3.7,1.6Z" fill="#fff"/><path d="M504.079,39.1c2.5,0,4.5.8,6,2.3s2.3,3.6,2.3,6.3v11.8h-5.1v-11.1c0-1.6-.4-2.8-1.2-3.6-.8-.8-1.9-1.3-3.3-1.3s-2.5.4-3.3,1.3c-.8.8-1.2,2-1.2,3.6v11.1h-5.1v-11.1c0-1.6-.4-2.8-1.2-3.6-.8-.8-1.9-1.3-3.3-1.3s-2.5.4-3.4,1.3c-.8.8-1.2,2-1.2,3.6v11.1h-5.1v-20.2h5.1v2.4c.6-.8,1.5-1.5,2.5-2s2.2-.7,3.4-.7c1.6,0,3,.3,4.2,1s2.2,1.6,2.9,2.8c.6-1.2,1.6-2.1,2.8-2.8,1.4-.5,2.8-.9,4.2-.9Z" fill="#fff"/></svg>